# xmcd
#
# Track frame offsets:
#	151
#	14100
#	25881
#	39486
#	52873
#	65558
#	79289
#	92826
#	105755
#	120666
#	134273
#	148840
#	163295
#	177250
#	190755
#
# Disc length: 2704 seconds
#
# Revision: 1
# Processed by: cddbd v1.4PL0 Copyright (c) Steve Scherf et al.
# Submitted via: MusicManager 7.0.3.0 
#
DISCID=cd0a8e0f
DTITLE=Various Artist - Got The Blues CD1
DYEAR=1998
DGENRE=Blues
TTITLE0=T-Bone Walker - They call it stormy Monday
TTITLE1=Muddy Waters - Gypsy woman
TTITLE2=Jimmy Witherspoon - Ain't nobody's business if i do
TTITLE3=Arthur 'Big Boy' Crudup - That's all right mama
TTITLE4=Champion Jack Dupree - Gin mill sal
TTITLE5=Big Maceo Merriweather - Chicago breakdown
TTITLE6=Big Bill Broonzy - Keep your hands off her
TTITLE7=Blind Boy Fuller - Truckin' my blues away
TTITLE8=Barbecue Bob - Motherless child blues
TTITLE9=Robert Johnson - Dust my broom
TTITLE10=Son House - My black mama
TTITLE11=Charley Patton - High sheriff blues
TTITLE12=Blind Lemon Jefferson - Matchbox blues
TTITLE13=Mississippi John Hurt - Ain't no telling
TTITLE14=Leroy Carr - Stormy night blues
EXTD=
EXTT0=
EXTT1=
EXTT2=
EXTT3=
EXTT4=
EXTT5=
EXTT6=
EXTT7=
EXTT8=
EXTT9=
EXTT10=
EXTT11=
EXTT12=
EXTT13=
EXTT14=
PLAYORDER=
